<?xml version="1.0" encoding="utf-8"?>
<!-- Generator: Adobe Illustrator 26.0.2, SVG Export Plug-In . SVG Version: 6.00 Build 0)  -->
<svg version="1.1" id="Layer_1" xmlns="http://www.w3.org/2000/svg" xmlns:xlink="http://www.w3.org/1999/xlink" x="0px" y="0px"
	 viewBox="0 0 1626.4 755.9" style="enable-background:new 0 0 1626.4 755.9;" xml:space="preserve">
<style type="text/css">
	.st0{fill:#EAEDED;}
	.st1{fill:#383E3E;}
	.st2{fill:#E0C8DB;}
	.st3{fill-rule:evenodd;clip-rule:evenodd;fill:#383E3E;}
	.st4{fill-rule:evenodd;clip-rule:evenodd;fill:#008296;}
	.st5{fill-rule:evenodd;clip-rule:evenodd;fill:#235A66;}
	.st6{fill:#008296;}
	.st7{fill:none;stroke:#D85211;stroke-width:1.53;stroke-miterlimit:3.86;}
	.st8{fill:#F5F9FA;}
	.st9{fill:#D85211;}
	.st10{fill:#CCB4C7;}
	.st11{fill-rule:evenodd;clip-rule:evenodd;fill:#FDCCD2;}
	.st12{fill-rule:evenodd;clip-rule:evenodd;fill:#BA3407;}
	.st13{fill:#013036;}
	.st14{fill:#00464F;}
	.st15{fill-rule:evenodd;clip-rule:evenodd;fill:#00464F;}
	.st16{fill-rule:evenodd;clip-rule:evenodd;fill:#013036;}
	.st17{fill:none;stroke:#013036;stroke-width:5;stroke-linecap:round;stroke-miterlimit:3.86;}
	.st18{fill:none;stroke:#013036;stroke-width:3.12;stroke-linecap:round;stroke-miterlimit:3.86;}
	.st19{fill:none;stroke:#013036;stroke-width:7.28;stroke-linecap:round;stroke-miterlimit:3.86;}
	.st20{fill-rule:evenodd;clip-rule:evenodd;fill:#FFA724;}
	.st21{fill-rule:evenodd;clip-rule:evenodd;fill:#EB9310;}
	.st22{fill-rule:evenodd;clip-rule:evenodd;fill:#CC7D36;}
	.st23{fill:#D9DEDE;}
	.st24{fill:#FAFAF7;}
	.st25{fill:#EFD58F;}
	.st26{fill:#BA3407;}
	.st27{fill:#B8DDE0;}
	.st28{fill:#FEEBB7;}
	.st29{fill:none;stroke:#368093;stroke-width:3.99;stroke-miterlimit:3.86;}
	.st30{fill:none;stroke:#368093;stroke-width:3;stroke-miterlimit:3.86;}
	.st31{fill:#6C7778;}
	.st32{fill-rule:evenodd;clip-rule:evenodd;fill:#6C7778;}
	.st33{fill:#8A9496;}
	.st34{fill-rule:evenodd;clip-rule:evenodd;fill:#BFC7C7;}
	.st35{fill:#6E7778;}
	.st36{fill-rule:evenodd;clip-rule:evenodd;fill:#6E7778;}
	.st37{fill:none;stroke:#FFA724;stroke-width:2;stroke-miterlimit:3.86;}
	.st38{fill-rule:evenodd;clip-rule:evenodd;fill:#B25B20;}
	.st39{fill-rule:evenodd;clip-rule:evenodd;fill:#8A9496;}
	.st40{fill:#CC7D36;}
	.st41{fill-rule:evenodd;clip-rule:evenodd;fill:#242A2A;}
	.st42{fill:none;stroke:#383E3E;stroke-miterlimit:10;}
	.st43{fill:none;stroke:#6E7778;stroke-width:0.6;stroke-linecap:round;stroke-miterlimit:3.86;}
	.st44{fill-rule:evenodd;clip-rule:evenodd;fill:#D85211;}
	.st45{fill-rule:evenodd;clip-rule:evenodd;fill:#F2AA91;}
	.st46{fill:none;stroke:#383E3E;stroke-width:1.12;stroke-linecap:round;stroke-miterlimit:3.86;}
	.st47{fill-rule:evenodd;clip-rule:evenodd;fill:#5A6364;}
	.st48{fill:#6E9190;}
	.st49{fill:#92BCC9;}
	.st50{fill:#ACB7B8;}
	.st51{fill:#F2AA91;}
	.st52{fill:#FDCCD2;}
	.st53{fill:none;stroke:#00464F;stroke-width:1.5;stroke-miterlimit:3.86;}
	.st54{fill:none;stroke:#00464F;stroke-width:2;stroke-miterlimit:3.86;}
	.st55{fill:none;stroke:#05444C;stroke-width:1.12;stroke-linecap:round;stroke-miterlimit:3.86;}
	.st56{fill:#F3DB97;}
	.st57{fill:#FFA724;}
	.st58{fill:#262728;}
	.st59{fill:#EB9310;}
	.st60{fill-rule:evenodd;clip-rule:evenodd;fill:#47A2B2;}
	.st61{fill-rule:evenodd;clip-rule:evenodd;fill:#368093;}
	.st62{fill-rule:evenodd;clip-rule:evenodd;fill:#ACB7B8;}
	.st63{fill:#5A6364;}
</style>
<g id="Layer_2_00000106826219915014913560000011317544669413945990_">
	<g id="layer_1-2">
		<g id="Layer_99">
			<ellipse class="st0" cx="792.8" cy="739.9" rx="756" ry="16"/>
		</g>
		<g id="Layer_97">
			<path class="st0" d="M1439.8,28.6c-113.6-34.9-281.7-42.1-427.7,2S670.8,151.3,339.4,161.5C157.2,167,10.5,216.3,0.8,309.4
				c-8.2,78.9,46.8,151,135.2,191.1c321.5,146.1,1032.8,84.3,1277.7-22.1C1629.3,384.8,1747,123,1439.8,28.6z"/>
		</g>
		<g id="Layer_94">
			<polygon class="st1" points="692.8,631.6 782.5,631.6 782.5,732.3 692.8,732.3 692.8,631.6 			"/>
			<polygon class="st2" points="714.6,631.6 804.3,631.6 804.3,732.5 714.6,732.5 714.6,631.6 			"/>
			<path class="st3" d="M749.7,695.8c0-8.4-4.7-15.2-10.7-15.8c-0.3,0-3.5,0-3.8,0c-6.4,0-8.6,7.1-8.6,15.9s1.1,15.9,7.5,15.9
				c0.2,0,4.6,0,4.8,0C744.9,711.1,749.7,704.2,749.7,695.8z"/>
			<path class="st4" d="M755.4,650.1l-1.2-3c19.3-1.8,33.3,8.5,31.6,34.4l-8.7,1.2C777.6,660.6,771.3,649.1,755.4,650.1z"/>
			<path class="st4" d="M760.5,650l-0.1-2.9c-15.6-1.4-33.9,6-31.1,35.5l8.8,0.1C737.4,660.6,744.5,649,760.5,650z"/>
			<path class="st5" d="M738,677.9h-9c0,1.4,0.1,2.6,0.2,3.7h8.8C738,681,738,679.8,738,677.9z"/>
			<ellipse class="st6" cx="733.4" cy="695.8" rx="11.5" ry="15.9"/>
			<ellipse class="st7" cx="730.9" cy="695.8" rx="6.8" ry="9.4"/>
			<circle class="st8" cx="738.3" cy="685.8" r="1.5"/>
			<path class="st5" d="M782.6,681.3c1.1-22.3-8.6-32.5-25.6-31.3c15.4,0.3,20.2,13,19.9,31L782.6,681.3z"/>
			<ellipse class="st6" cx="784.6" cy="696.7" rx="11.5" ry="15.9"/>
			<path class="st3" d="M793.1,696.6c0-8.4-4.7-15.2-10.7-15.8c-0.3,0-3.5,0-3.8,0c-6.4,0-8.6,7.1-8.6,15.9s1.1,15.9,7.5,15.9
				c0.2,0,4.6,0,4.8,0C788.3,712,793.1,705.1,793.1,696.6z"/>
			<ellipse class="st1" cx="777.9" cy="696.6" rx="11.5" ry="15.9"/>
			<path class="st1" d="M764.5,637.2H757v5.2h7.5L764.5,637.2z M797.7,637.2h-24.2v5.2h24.2V637.2z"/>
			<polygon class="st1" points="722.8,723.6 756.9,723.6 756.9,727.1 722.8,727.1 722.8,723.6 			"/>
			<path class="st9" d="M705.9,689.9v-7.5h-5.2v7.5H705.9z M705.9,723.1v-24.2h-5.2v24.2H705.9z"/>
			<polygon class="st1" points="687.4,621.2 782.2,621.2 787.7,631.7 692.9,631.7 687.4,621.2 			"/>
			<polygon class="st10" points="812,617.2 722.2,617.2 714.6,631.8 804.4,631.8 812,617.2 			"/>
		</g>
		<g id="Layer_93">
			<polygon class="st11" points="550.6,387.6 577,416.5 600.2,398 569.8,371.8 			"/>
		</g>
		<g id="Layer_92">
			<polygon class="st12" points="537.1,333.6 573.5,371.9 553.4,395.2 518.2,364.5 			"/>
		</g>
		<g id="Layer_91">
			<path class="st13" d="M1054.1,579.9c0-4.9,3.9-8.8,8.8-8.8l0,0h93.6c4.9,0,8.8,3.9,8.8,8.8v0V592c0,4.9-3.9,8.8-8.8,8.8h-93.6
				c-4.9,0-8.8-4-8.8-8.8V579.9z"/>
			<polygon class="st13" points="1094.3,589.9 1118.7,589.9 1118.7,659.2 1094.3,659.2 1094.3,589.9 			"/>
			<polygon class="st14" points="1100,666.6 1111.5,666.6 1111.5,696.8 1100,696.8 1100,666.6 			"/>
			<polygon class="st15" points="1094.3,635.5 1118.6,617.8 1118.6,659.1 1094.3,659.1 			"/>
			<polygon class="st16" points="1100,659.1 1111.5,659.1 1111.5,667.8 1100,676 			"/>
			<circle class="st13" cx="1172" cy="727.8" r="10.3"/>
			<circle class="st13" cx="1105.4" cy="727.8" r="10.3"/>
			<circle class="st13" cx="1038.7" cy="727.8" r="10.3"/>
			<path class="st17" d="M1174.1,708.5c-17.6-7.2-41.7-11.7-68.2-11.7c-25.5,0-48.7,4.1-66.1,10.8"/>
			<path class="st16" d="M1271,400.4c6.5-31.4-13.7-56.9-45.1-56.9h-25.3c-31.4,0-62.2,25.5-68.7,56.9
				c-16.7,77.3-34,132.8-52.1,166.4c-3.2,18.4,132.4,19.6,136.1,11.8C1236.6,538.1,1257,470.9,1271,400.4z"/>
			<path class="st15" d="M1245.5,399.6c6.5-31.4-13.7-56.9-45.1-56.9h-25.3c-31.4,0-62.2,25.5-68.7,56.9
				c-16.7,77.3-34,132.8-52.1,166.4c-3.2,18.4,137.6,11.2,139.3,0C1214.2,525.6,1231.5,470.1,1245.5,399.6z"/>
			<path class="st14" d="M988.5,566c0-5.5,4.5-10,10-10h207.4c5.5,0,10,4.5,10,10v8.1c0,5.5-4.5,10-10,10H998.5c-5.5,0-10-4.5-10-10
				L988.5,566L988.5,566z"/>
			<path class="st13" d="M1096.4,566c0-5.5,4.5-10,10-10H1207c5.5,0,10,4.5,10,10v8c0,5.5-4.5,10-10,10h-100.6c-5.5,0-10-4.5-10-10
				L1096.4,566L1096.4,566z"/>
			<line class="st18" x1="1014.3" y1="556.1" x2="1014.3" y2="510.1"/>
			<path class="st19" d="M1079.4,508.4c-9.1-1.1-18.2-1.7-27.4-1.6c-25.5,0-48.7,4.1-66,10.8"/>
			<line class="st18" x1="1155.2" y1="562.5" x2="1155.2" y2="509.6"/>
			<path class="st19" d="M1220.2,507.9c-9.1-1.1-18.2-1.7-27.4-1.6c-25.5,0-48.7,4.1-66.1,10.8"/>
		</g>
		<g id="Layer_90">
			<path class="st1" d="M1085.4,555.8c33.7,0.1,47.2-5.5,43.6-33c-27.5-4.4-7.1-42.2-79.3-18.2l-154.5,5.9
				c-7.5,0.5-12.3,2.6-16,11.2l-85.5,201.2l18.3,7.3c72.2-135.9,77.5-125.4,95.4-165.8C908,562.7,1002.2,559,1085.4,555.8z"/>
		</g>
		<g id="Layer_89">
			<path class="st1" d="M1132.9,555.9c33.8,0.1,40.6-28.4,43.5-49.6c4.1-29.3-70.2-2.3-97.1-4.2l-98.9,17.3L961,731.2
				c6.5,2.5,12.1,2.7,19.3,2.2c16-105,36.7-106.4,36.7-169.5C1017,562.9,1063,554.9,1132.9,555.9z"/>
		</g>
		<g id="Layer_88">
			<path class="st20" d="M1049.6,504.7l20.2-60.2c10.5-50.9,13.9-98,10.6-139.3l41.4-24.2l54.9,2.6l51.3,27.2
				c11.9,17.5,12.7,39.5,2.3,65.8l-36,95l-17.6,35L1049.6,504.7z"/>
		</g>
		<g id="Layer_87">
			<path class="st21" d="M1190.2,380.2l31.4-39.9c8-11.7,8.3-21.5,6.3-29.4c10.5,11.3,14.2,37.4,5.4,59.3
				c-20.7,57.7-39.4,103.1-56,136h-27.7c23.6-39.3,44.3-82.5,61.9-129.6l-9.4,13.4L1190.2,380.2z"/>
		</g>
		<g id="Layer_86">
			<path class="st4" d="M1128.1,153.5l1.4-3.9c-25.2-2.4-43.2,11-41,44.8l11.4,1.6C1099,167.2,1107.2,152.2,1128.1,153.5z"/>
			<path class="st5" d="M1092.5,194.2c-1.4-29.1,11.2-42.4,33.4-40.7c-20.1,0.4-26.3,16.9-25.9,40.4L1092.5,194.2z"/>
			<ellipse class="st6" cx="1089.9" cy="214.3" rx="15.1" ry="20.7"/>
			<path class="st3" d="M1078.8,214.1c0-10.9,6.1-19.9,13.9-20.6c0.4,0,4.6-0.1,5-0.1c8.3,0,11.2,9.3,11.2,20.7s-1.4,20.7-9.7,20.7
				c-0.3,0-6,0-6.3,0C1085.1,234.1,1078.8,225.1,1078.8,214.1z"/>
			<ellipse class="st1" cx="1098.7" cy="214.2" rx="15.1" ry="20.7"/>
		</g>
		<g id="Layer_85">
			<path class="st22" d="M1022.8,413.8l30.6-48.5l29.2,10.6l-33.9,58.1C1037.7,449,1009.5,441.1,1022.8,413.8z"/>
		</g>
		<g id="Layer_84">
			<path class="st13" d="M424.4,580c0-4.9,3.9-8.8,8.8-8.8c0,0,0,0,0,0h93.6c4.9,0,8.8,3.9,8.8,8.8c0,0,0,0,0,0v12.1
				c0,4.9-3.9,8.8-8.8,8.8c0,0,0,0,0,0h-93.6c-4.9,0-8.8-3.9-8.8-8.8c0,0,0,0,0,0V580z"/>
			<polygon class="st13" points="471,590 495.4,590 495.4,659.2 471,659.2 471,590 			"/>
			<polygon class="st14" points="478.3,666.7 489.8,666.7 489.8,696.9 478.3,696.9 478.3,666.7 			"/>
			<polygon class="st15" points="471.1,635.5 495.4,617.9 495.4,659.2 471.1,659.2 			"/>
			<polygon class="st16" points="478.3,659.2 489.8,659.2 489.8,667.8 478.3,676 			"/>
			<circle class="st13" cx="417.7" cy="727.8" r="10.3"/>
			<circle class="st13" cx="484.4" cy="727.8" r="10.3"/>
			<circle class="st13" cx="551" cy="727.8" r="10.3"/>
			<path class="st17" d="M415.7,708.5c17.6-7.2,41.7-11.7,68.2-11.7c25.5,0,48.7,4.1,66,10.8"/>
			<path class="st16" d="M318.7,400.4c-6.5-31.4,13.7-56.9,45.1-56.9h25.3c31.4,0,62.2,25.5,68.7,56.9
				c16.7,77.3,34,132.8,52.1,166.4c3.2,18.4-123.4,22.2-132.2,12.3C355.3,538.6,332.7,470.9,318.7,400.4z"/>
			<path class="st15" d="M344.2,399.6c-6.5-31.4,13.7-56.9,45.1-56.9h25.3c31.4,0,62.2,25.5,68.7,56.9
				c16.7,77.3,34,132.8,52.1,166.4c3.2,18.4-137.6,11.2-139.3,0C375.5,525.6,358.2,470.2,344.2,399.6z"/>
			<path class="st14" d="M377,566.1c0-5.5,4.5-10,10-10h204.2c5.5,0,10,4.5,10,10v8.3c0,5.5-4.5,10-10,10H387c-5.5,0-10-4.5-10-10
				V566.1z"/>
			<path class="st13" d="M376.5,566.1c0-5.5,4.5-10,10-10h96.8c5.5,0,10,4.5,10,10v8.3c0,5.5-4.5,10-10,10h-96.8
				c-5.5,0-10-4.5-10-10L376.5,566.1L376.5,566.1z"/>
			<line class="st18" x1="575.5" y1="556.5" x2="575.5" y2="510.1"/>
			<path class="st19" d="M510.4,508.4c9.1-1.1,18.2-1.6,27.4-1.6c25.5,0,48.7,4.1,66.1,10.8"/>
			<line class="st18" x1="434.6" y1="562.6" x2="434.6" y2="509.6"/>
			<path class="st19" d="M369.5,507.9c9.1-1.1,18.2-1.6,27.4-1.6c25.5,0,48.7,4.1,66,10.8"/>
		</g>
		<g id="Layer_83">
			<path class="st23" d="M510.3,444.7v-0.2c0-0.4,0.2-0.8,0.6-1c0.4-0.2,0.8-0.2,1.2,0l0.3,0.2c0.6,0.3,0.7,1,0.4,1.6
				c-0.2,0.3-0.6,0.6-1,0.6h-0.3l-22.2,0.1l0,0l-6.6-0.1c-0.6,0-1.1-0.5-1.1-1.2c0-0.6,0.5-1.1,1.1-1.1l27.7-0.2v-24.9
				c0-0.6,0.5-1.2,1.1-1.2s1.2,0.5,1.2,1.2v26.1c0,0.6-0.5,1.1-1.1,1.2l-28.8,0.2v-1.2v-1.1l6.5,0.1l22.2-0.1h0.4v1.1l-0.6,1
				l-0.4-0.2l0.6-1h1.2v0.2c0,0.6-0.5,1.2-1.1,1.2S510.3,445.4,510.3,444.7C510.3,444.7,510.3,444.7,510.3,444.7L510.3,444.7z
				 M440.6,470.1h75c0.6,0.1,1.1,0.6,1,1.3c-0.1,0.6-0.5,1-1,1h-75c-0.6,0.1-1.2-0.4-1.3-1s0.4-1.2,1-1.3
				C440.5,470.1,440.5,470.1,440.6,470.1L440.6,470.1z M490.4,444.9v26.4c-0.1,0.6-0.6,1.1-1.3,1c-0.6-0.1-1-0.5-1-1v-26.4
				c0.1-0.6,0.6-1.1,1.3-1C489.9,443.9,490.3,444.3,490.4,444.9z M462.8,443.7l19.8-0.1c0.6,0.1,1.1,0.6,1,1.3c-0.1,0.6-0.5,1-1,1
				l-19.8,0.1c-0.6,0-1.2-0.5-1.2-1.1C461.7,444.2,462.2,443.7,462.8,443.7C462.8,443.7,462.8,443.7,462.8,443.7L462.8,443.7z"/>
			<path class="st24" d="M510,499.4l-14-11.3l10.6-3.1c0.3,1.4,0.7,2.9,1.2,4.2c1.3,2.9,3.6,5.1,6.6,6.2L510,499.4z M534.4,476.8
				v0.1l-0.6,0.6l-15.5,4.1L534.4,476.8z"/>
			<path class="st9" d="M421.2,519.8l0-0.2h0.1v-0.1l1.1,0.3H421.2z M501,289.7c8.3,4,7.6,3.7,28.7,15.5c4.9,2.7,14.2,5.9,11,34
				c-1.3,11-9.8,88.9,17.7,163c0,0-18,6.2-18.8,20.9c-8.8-1.7-115.8-2.5-116.7-3.2c-0.4-0.3,0.5-20.8,0-20.9
				c-12.7-73.3-14.7-121-6-143l17.9-5.2h-0.2L411.9,315l-1.7,1.1c0.1-0.8-5.6,2.9-5.1,2.1c2.5-4.1,11-12.6,21.5-16.5
				c3.4-1.5,29.4-10.1,46.3-18.1l22,10L501,289.7z M450.5,376c4.6,3.7,9.5,5,14.6,3.7c2.4-4.1,4.1-10.3,5-18.5l-19-3
				C450.2,364.1,450,370.1,450.5,376L450.5,376z M465.1,379.7c-5.1,1.2-10,0-14.6-3.7l0,0c-0.5-5.9-0.2-11.9,0.6-17.8l19,3
				C469.1,369.5,467.5,375.7,465.1,379.7L465.1,379.7z"/>
			<polygon class="st25" points="434.7,350.7 434.7,350.7 434.6,351.1 			"/>
			<path class="st26" d="M411.9,314.9l23.6,35.1l-0.6,1.5v0.3c-15.9,33.2-19.4,82.4-10.7,147.5l-2-0.3c-16-80.3-10-111.3-12-182.9
				L411.9,314.9z"/>
			<path class="st27" d="M367.1,480.7l0.5-0.1c-0.3,0.1-0.6,0.2-0.8,0.2L367.1,480.7z"/>
			<polygon class="st28" points="367.8,480.5 367.7,480.6 367.7,480.5 			"/>
		</g>
		<g id="Layer_82">
			<path class="st29" d="M266.6,469.7l-9.8,265.4c0.1,3.8-3,7-6.8,7.1h-1.5c-3.9-0.1-6.9-3.3-6.9-7.1l-9.8-265.4"/>
			<path class="st30" d="M307.5,469.5l-9.4,253.9c0.1,3.7-2.9,6.7-6.5,6.8c0,0,0,0,0,0h-1.5c-3.7-0.1-6.6-3.1-6.6-6.8c0,0,0,0,0,0
				l-9.4-253.9"/>
		</g>
		<g id="Layer_81">
			<path class="st29" d="M1335.2,469.8l9.8,265.4c-0.1,3.9,3,7,6.8,7.1h1.5c3.9-0.1,6.9-3.3,6.8-7.1l9.8-265.4"/>
			<path class="st30" d="M1294.2,469.5l9.4,253.9c-0.1,3.7,2.9,6.7,6.6,6.8h1.5c3.7-0.1,6.6-3.1,6.6-6.8l9.4-253.9"/>
		</g>
		<g id="Layer_80">
			<polygon class="st31" points="197.8,459 1387.3,459 1387.3,477.7 197.8,477.7 197.8,459 			"/>
		</g>
		<g id="Layer_79">
			<path class="st32" d="M215.9,470.7c6.3-2,12.8-3.2,19.4-3.5h1118.9c6.1,0.2,12.2,1.4,17.9,3.5l11,4.2c5.4,2.1,5.7,3.8,0.5,3.8
				H201.1c-5.1,0-4.2-1.7,2.1-3.8L215.9,470.7z"/>
		</g>
		<g id="Layer_78">
			<polygon class="st33" points="201.7,459 214.6,459 214.6,478.7 201.7,478.7 201.7,459 			"/>
		</g>
		<g id="Layer_77">
			<polygon class="st33" points="1370,459 1382.9,459 1382.9,478.7 1370,478.7 1370,459 			"/>
		</g>
		<g id="Layer_76">
			<path class="st34" d="M216,451.9c6.3-2,12.8-3.2,19.4-3.5h1118.8c6.1,0.2,12.2,1.4,17.9,3.5l11,4.2c5.4,2.1,5.7,3.8,0.5,3.8
				H201.2c-5.1,0-4.2-1.7,2.1-3.8L216,451.9z"/>
		</g>
		<g id="Layer_75">
			<polygon class="st35" points="494,446.7 707.1,446.7 707.1,454.4 494,454.4 494,446.7 			"/>
		</g>
		<g id="Layer_74">
			<polygon class="st20" points="1077.5,307.1 1041.6,377.7 1074.9,399 1087.7,377.2 1100.4,293.5 			"/>
		</g>
		<g id="Layer_73">
			<path class="st22" d="M1121.5,281l-3.9-14.8c-9.6,0.4-18.9-1.2-21.1-7.2l-12.7-70.3c-0.9-27.5,19.1-30.8,60-10
				c6.3,34,8.9,53,8,57l13,41l21.7,12.1c-34.6,21.9-75.7,18.3-85.8,4.5L1121.5,281z"/>
		</g>
		<g id="Layer_72">
			<path class="st3" d="M1109.6,158.2c34.4-18.4,55.3-0.4,58.4,16.1l-6,2.5l-43.9,0.7l3.7-5.8L1109.6,158.2z"/>
		</g>
		<g id="Layer_71">
			<path class="st36" d="M1124.4,177.4l8,8l0.6,26.7l18.2-7.1l0.7,34.8c10.2-21,19.9-47.8,10-63.2L1124.4,177.4z"/>
		</g>
		<g id="Layer_70">
			<ellipse class="st37" cx="1151.8" cy="210.6" rx="8.9" ry="12.2"/>
		</g>
		<g id="Layer_69">
			<path class="st3" d="M1097.9,231.8l8-1.6c12.3-1.9,19.8,4.1,18.9,16.6c-1.1,5.6-9.4-7.1-12.8-6.5c-3.4,3.7-6.1,3.7-13.7,3.4
				c-3,3.8-0.4,11.1-6.2,10.3C1088.8,249.6,1089,237,1097.9,231.8z"/>
		</g>
		<g id="Layer_68">
			<path class="st38" d="M1117.7,266.3c17.4-1.7,30.4-18.1,34.1-31.5l7,22.9c-8.6,10.2-21.6,15.6-38.9,16L1117.7,266.3z"/>
		</g>
		<g id="Layer_67">
			<path class="st39" d="M950.3,277.8c-0.1-0.7,0-1.3,0.2-2c0.1-0.3,2.7-3.2,2.8-3.5c0.5-0.9,1.5-1.4,2.5-1.3h29.6
				c2.4,0.1,4.4,1.7,5.2,3.9l20.2,63.5c0.4,1,0.2,2.2-0.5,3c-0.1,0.1-2.5,2.8-2.7,3c-0.8,0.4-1.6,0.5-2.5,0.5l-26.6-2.6
				c-2.4-0.1-4.4-1.7-5.2-3.9L950.3,277.8z"/>
			<path class="st1" d="M950.2,278.5c-0.7-2.2,0.5-3.9,2.7-3.9h30c2.4,0.1,4.4,1.7,5.2,3.9l20,63c0.7,2.2-0.5,3.9-2.7,3.9h-30
				c-2.4-0.1-4.4-1.7-5.2-3.9L950.2,278.5L950.2,278.5z"/>
		</g>
		<g id="Layer_66">
			<path class="st40" d="M969.6,352.2c-1.2-0.1-2.3-0.1-3.5,0c-2.5,0.2-4.3,0.9-5.3,2c-1.1,1.2-1.6,2.1-1.7,4.6c0,1.3,6.8,10,6.9,11
				l51.8,71.8c15.9,18.4,37.6-0.8,22-24C1033.6,408.3,985.1,364,969.6,352.2z"/>
			<path class="st40" d="M956.6,321.7l10.8-14.5c4.5,0.6,3.9,6.3-1.8,17.1l-1.2,5.8l7-4.8l16.8-3c3.8,4,1.5,6.7-6.8,8l11.8,1.6
				c1.8,3.9-2.2,5.6-11.8,5.3l-3.7,5.3l6.7-1.1l8.3,2.1c-0.2,3.7-3.1,4.9-8.6,3.6c-3.6,1.2-6.2,4.3-6.8,8
				c-0.3,6.4-3.4,10.7-9.2,12.9c-5.6,2.2-10.9-8-15.7-30.5L956.6,321.7z"/>
		</g>
		<g id="Layer_65">
			<polygon class="st35" points="920.5,439 1125.1,439 1125.1,453.8 920.5,453.8 920.5,439 			"/>
		</g>
		<g id="Layer_64">
			<path class="st22" d="M1138.6,416.1l33.8-51l28.6,23.9l-45.1,49C1142,450.3,1119.8,440.1,1138.6,416.1z"/>
		</g>
		<g id="Layer_63">
			<path class="st3" d="M1132.9,213c0-10.9,6.1-19.8,13.9-20.6c0.4,0,4.6-0.1,5-0.1c8.3,0,11.2,9.3,11.2,20.7s-1.4,20.7-9.7,20.7
				c-0.3,0-6,0-6.3,0C1139.2,233,1132.9,224,1132.9,213z"/>
			<path class="st4" d="M1118.8,153.3l0.2-3.8c20.3-1.9,44.1,7.8,40.5,46.2l-11.4,0.2C1148.9,167.1,1139.7,152,1118.8,153.3z"/>
			<path class="st5" d="M1148.1,189.6h11.8c0,1.9-0.1,3.4-0.2,4.8h-11.5C1148.1,193.7,1148.1,192.1,1148.1,189.6z"/>
			<ellipse class="st6" cx="1154.1" cy="213.1" rx="15.1" ry="20.7"/>
			<ellipse class="st37" cx="1157.4" cy="213" rx="8.9" ry="12.2"/>
			
				<ellipse transform="matrix(0.1607 -0.987 0.987 0.1607 765.8361 1300.7537)" class="st8" cx="1147.8" cy="200.1" rx="1.9" ry="1.9"/>
		</g>
		<g id="Layer_62">
			<path class="st3" d="M1085.1,181c-24.5-10.5-23.7-57.1,15.2-49.4c9.8,1.5,21.8,12,32.1-0.8c0.8,9.6-12.4,22.7-18.3,26.5
				l10.4,13.8c-6.4,1.2-13.8,4.5-22.2,9.8C1095.3,184,1088.8,183.4,1085.1,181z"/>
		</g>
		<g id="Layer_61">
			<polygon class="st1" points="229,351.6 318.7,351.6 318.7,452.3 229,452.3 229,351.6 			"/>
			<polygon class="st2" points="250.6,351.6 340.5,351.6 340.5,452.5 250.6,452.5 250.6,351.6 			"/>
			<path class="st3" d="M285.8,415.8c0-8.4-4.7-15.2-10.7-15.8c-0.3,0-3.5,0-3.8,0c-6.4,0-8.6,7.1-8.6,15.9s1.1,15.9,7.5,15.9
				c0.2,0,4.6,0,4.8,0C281,431.1,285.8,424.2,285.8,415.8z"/>
			<path class="st4" d="M291.5,370.1l-1.2-3c19.3-1.9,33.3,8.5,31.6,34.4l-8.7,1.2C313.8,380.6,307.5,369.2,291.5,370.1z"/>
			<path class="st4" d="M296.6,370l-0.1-2.9c-15.6-1.4-33.9,6-31.1,35.5l8.8,0.1C273.5,380.6,280.7,369,296.6,370z"/>
			<path class="st5" d="M274.2,397.9h-9c0,1.4,0.1,2.6,0.2,3.7h8.8C274.2,401,274.2,399.8,274.2,397.9z"/>
			<ellipse class="st6" cx="269.6" cy="415.8" rx="11.5" ry="15.9"/>
			<ellipse class="st7" cx="267" cy="415.8" rx="6.8" ry="9.4"/>
			<path class="st8" d="M273,405.9c0-0.8,0.7-1.5,1.5-1.5s1.5,0.7,1.5,1.5c0,0.8-0.7,1.5-1.5,1.5C273.7,407.3,273,406.7,273,405.9
				C273,405.9,273,405.9,273,405.9z"/>
			<path class="st5" d="M318.8,401.3c1.1-22.3-8.6-32.5-25.6-31.3c15.5,0.3,20.2,13,19.9,31L318.8,401.3z"/>
			<ellipse class="st6" cx="320.8" cy="416.8" rx="11.5" ry="15.9"/>
			<path class="st3" d="M329.3,416.6c0-8.4-4.7-15.2-10.7-15.8c-0.3,0-3.5,0-3.8,0c-6.4,0-8.6,7.1-8.6,15.9s1.1,15.9,7.5,15.9
				c0.2,0,4.6,0,4.8,0C324.5,432,329.3,425.1,329.3,416.6z"/>
			<ellipse class="st1" cx="314.1" cy="416.7" rx="11.5" ry="15.9"/>
			<path class="st1" d="M300.6,357.2h-7.5v5.2h7.5V357.2z M333.8,357.2h-24.2v5.2h24.2V357.2z"/>
			<polygon class="st1" points="258.9,443.6 293.1,443.6 293.1,447.1 258.9,447.1 258.9,443.6 			"/>
			<path class="st9" d="M242.1,409.9v-7.5h-5.2v7.5H242.1z M242.1,443.1v-24.2h-5.2v24.2H242.1z"/>
		</g>
		<g id="Layer_60">
			<polygon class="st1" points="240.4,251.7 330,251.7 330,352.4 240.4,352.4 240.4,251.7 			"/>
			<polygon class="st2" points="262.2,251.7 351.9,251.7 351.9,352.6 262.2,352.6 262.2,251.7 			"/>
			<path class="st3" d="M297.2,315.9c0-8.4-4.7-15.2-10.7-15.8c-0.3,0-3.5,0-3.8,0c-6.4,0-8.6,7.1-8.6,15.9s1.1,15.9,7.5,15.9
				c0.2,0,4.6,0,4.8,0C292.4,331.2,297.2,324.3,297.2,315.9z"/>
			<path class="st4" d="M302.9,270.2l-1.2-3c19.3-1.9,33.3,8.5,31.6,34.4l-8.7,1.2C325.2,280.7,318.9,269.2,302.9,270.2z"/>
			<path class="st4" d="M308,270.1l-0.1-2.9c-15.6-1.4-33.9,6-31.1,35.5l8.8,0.1C284.9,280.7,292,269.1,308,270.1z"/>
			<path class="st5" d="M285.6,298h-9c0,1.4,0.1,2.7,0.2,3.7h8.8C285.6,301.1,285.6,299.9,285.6,298z"/>
			<ellipse class="st6" cx="281" cy="315.9" rx="11.5" ry="15.9"/>
			<ellipse class="st7" cx="278.4" cy="315.9" rx="6.8" ry="9.4"/>
			<path class="st8" d="M284.3,305.9c0-0.8,0.7-1.5,1.5-1.5s1.5,0.7,1.5,1.5c0,0.8-0.7,1.5-1.5,1.5c0,0,0,0,0,0
				C285,307.4,284.3,306.8,284.3,305.9z"/>
			<path class="st5" d="M330.2,301.4c1.1-22.3-8.6-32.5-25.6-31.3c15.5,0.4,20.2,13,19.9,31L330.2,301.4z"/>
			<ellipse class="st6" cx="332.2" cy="316.8" rx="11.5" ry="15.9"/>
			<path class="st3" d="M340.7,316.7c0-8.4-4.7-15.2-10.7-15.8c-0.3,0-3.5,0-3.8,0c-6.4,0-8.6,7.1-8.6,15.9s1.1,15.9,7.5,15.9
				c0.2,0,4.6,0,4.8,0C335.9,332.1,340.7,325.2,340.7,316.7z"/>
			<ellipse class="st1" cx="325.5" cy="316.8" rx="11.5" ry="15.9"/>
			<path class="st1" d="M312,257.3h-7.5v5.2h7.5V257.3z M345.2,257.3H321v5.2h24.2V257.3z"/>
			<polygon class="st1" points="270.3,343.7 304.5,343.7 304.5,347.2 270.3,347.2 270.3,343.7 			"/>
			<path class="st9" d="M253.4,310v-7.5h-5.2v7.5H253.4z M253.4,343.2V319h-5.2v24.2L253.4,343.2z"/>
			<polygon class="st1" points="235,241.3 329.7,241.3 335.2,251.8 240.5,251.8 235,241.3 			"/>
			<polygon class="st10" points="359.6,237.3 269.8,237.3 262.2,251.9 351.9,251.9 359.6,237.3 			"/>
		</g>
		<g id="Layer_59">
			<polygon class="st10" points="255.6,352.4 340.5,352.4 340.5,357.7 255.6,357.7 255.6,352.4 			"/>
		</g>
		<g id="Layer_58">
			<polygon class="st1" points="292.8,355.4 382.5,355.4 382.5,456.1 292.8,456.1 292.8,355.4 			"/>
			<polygon class="st2" points="314.8,355.4 404.4,355.4 404.4,456.2 314.8,456.2 314.8,355.4 			"/>
			<path class="st3" d="M349.7,419.6c0-8.4-4.7-15.2-10.7-15.8c-0.3,0-3.5,0-3.8,0c-6.4,0-8.6,7.1-8.6,15.9s1.1,15.9,7.5,15.9
				c0.2,0,4.6,0,4.8,0C344.9,434.9,349.7,428,349.7,419.6z"/>
			<path class="st4" d="M355.4,373.9l-1.2-3c19.3-1.9,33.3,8.5,31.6,34.4l-8.7,1.2C377.7,384.4,371.4,373,355.4,373.9z"/>
			<path class="st4" d="M360.5,373.8l-0.1-2.9c-15.6-1.4-33.9,6-31.1,35.5l8.8,0.1C337.4,384.4,344.5,372.8,360.5,373.8z"/>
			<path class="st5" d="M338.1,401.7h-9c0,1.4,0.1,2.6,0.2,3.7h8.8C338,404.8,338,403.6,338.1,401.7z"/>
			<ellipse class="st6" cx="333.5" cy="419.6" rx="11.5" ry="15.9"/>
			<ellipse class="st7" cx="330.9" cy="419.5" rx="6.8" ry="9.4"/>
			<path class="st8" d="M336.8,409.6c0-0.8,0.7-1.5,1.5-1.5s1.5,0.7,1.5,1.5s-0.7,1.5-1.5,1.5c0,0,0,0,0,0
				C337.5,411.1,336.8,410.5,336.8,409.6C336.8,409.6,336.8,409.6,336.8,409.6z"/>
			<path class="st5" d="M382.7,405.1c1.1-22.3-8.6-32.5-25.6-31.3c15.5,0.3,20.2,13,19.9,31L382.7,405.1z"/>
			<ellipse class="st6" cx="384.7" cy="420.5" rx="11.5" ry="15.9"/>
			<path class="st3" d="M393.2,420.4c0-8.4-4.7-15.2-10.7-15.8c-0.3,0-3.5,0-3.8,0c-6.4,0-8.6,7.1-8.6,15.9s1.1,15.9,7.5,15.9
				c0.2,0,4.6,0,4.8,0C388.4,435.8,393.2,428.9,393.2,420.4z"/>
			<ellipse class="st1" cx="378" cy="420.5" rx="11.5" ry="15.9"/>
			<path class="st1" d="M364.5,361H357v5.2h7.5L364.5,361z M397.7,361h-24.2v5.2h24.2V361z"/>
			<polygon class="st1" points="322.8,447.4 357,447.4 357,450.9 322.8,450.9 322.8,447.4 			"/>
			<path class="st9" d="M305.9,413.7v-7.5h-5.2v7.5H305.9z M305.9,446.9v-24.2h-5.2v24.2L305.9,446.9z"/>
		</g>
		<g id="Layer_57">
			<path class="st1" d="M810.6,725c1,0.1-1.1-0.6,0.5,4.2c-2.5,7.8-4.3,10.3-5.6,11.1c-4.4,1.5-5.5,1.3-20.8,1.3s-22.7-0.8-22.2-2.5
				s2.6-3.2,6.3-4.5c3-1.1,17.4-4.4,18.1-4.7c3.1-1.1,7.2-2.3,10.1-8.3C811.4,717,801.6,725.2,810.6,725z"/>
		</g>
		<g id="Layer_56">
			<path class="st1" d="M977.8,728.5c0.8,0.1-0.8-0.6,0.4,4.8c-1.7,8.9-3,11.8-3.9,12.8c-3.1,1.9-3.9,1.7-14.9,2.4s-16.2,0.1-16-1.9
				s1.8-3.8,4.5-5.3c2.2-1.4,12.4-5.7,13-6c2.2-1.4,2.3-3.2,4.4-10.1C975.5,719.1,971.4,729,977.8,728.5z"/>
		</g>
		<g id="Layer_55">
			<path class="st1" d="M614.9,732c-1,0.1,1.1-0.6-0.5,4.2c2.5,7.8,4.3,10.3,5.6,11.1c4.4,1.5,5.5,1.3,20.8,1.3s22.7-0.8,22.2-2.5
				s-2.6-3.2-6.3-4.5c-3-1.1-17.4-4.4-18.1-4.7c-3.1-1.1-7.2-2.3-10.1-8.3C614.1,723.9,623.9,732.1,614.9,732z"/>
		</g>
		<g id="Layer_54">
			<path class="st1" d="M640.6,717.4c-1.1,0.1,3.4-5.9,0-1c-2.7,11.2-1.7,15.5-0.8,16.3c3.8,1.4,5,1.2,20.2,0.9s23-1.2,23.2-2.9
				s-1.3-3.2-4.6-4.4c-2.6-1-15.8-4-16.3-4.3c-2.7-1.1-6.3-2.2-6.9-8.1C642.9,709.3,649.5,717.3,640.6,717.4z"/>
		</g>
		<g id="Layer_53">
			<path class="st41" d="M979.4,533.1c1.6-6.6,5.1-10.8,10.6-12.6l96.1-9.9l89.9-1l0.5-3l-126.8-2.1l-75.3,3l-20.7,53.7l22.8-1.1
				L979.4,533.1z"/>
		</g>
		<g id="Layer_52">
			<path class="st42" d="M1098.4,205.9c3.4,10.6-4.4,21.5-4.4,23.9c1.6,1.1,4.4,2.4,11.5,0.8"/>
		</g>
		<g id="Layer_51">
			<path class="st43" d="M1095.3,135.3c-28.4,0.8-19.8,37.6-5.6,44.6"/>
		</g>
		<g id="Layer_50">
			<path class="st43" d="M1114.5,140.1c-22-6-28.4,24.5-16,39.5"/>
		</g>
		<g id="Layer_49">
			<path class="st43" d="M1121.4,145.8c-12.8-2.4-16.8,15-12.3,28.7"/>
		</g>
		<g id="Layer_48">
			<path class="st43" d="M1137.9,173.4c-1.2-4.8-6.3-9.5-9.5-9.5"/>
		</g>
		<g id="Layer_47">
			<path class="st1" d="M481,554.6c-45.4-2.2-65.8-10.9-58.9-55.3l258.1-0.7c10.2,0.1,20.1,9.1,17.4,21.4l-36.5,198.5l-22.7,0.5
				c15.4-117.9,6.6-166.7,18.3-183.4C657.3,534.7,524.6,552.4,481,554.6z"/>
		</g>
		<g id="Layer_46">
			<path class="st1" d="M455.9,555.7c-33.1,0.1-44.8-17.9-32-47.2c28.5-4.7,62.2-0.5,88.4-2.6l92,5.4l29.8,220.7
				c-6.1,5-13.4,5.7-21.2,6c-39.3-159.7-47.6-161-44.3-180.2C568.8,556.2,496.3,556.4,455.9,555.7z"/>
		</g>
		<g id="Layer_45">
			<path class="st41" d="M603,510c-1-7.2-5.6-10.9-13.7-11.1h29.4l11.8,39.6l-22.3,2.7L603,510z"/>
		</g>
		<g id="Layer_44">
			<polygon class="st21" points="1060.8,390 1084.4,350.9 1078.2,393.3 1075,399 			"/>
		</g>
		<g id="Layer_43">
			<path class="st40" d="M1064.7,354.9c-1.2,0.1-2.3,0.2-3.5,0.5c-2.5,0.6-4.1,1.5-5,2.8s-1.3,3.3-1,5.8c0.1,1.1,0.3,2.2,0.6,3.3
				l72.6,70.8c18.3,16,41.4-6.6,22.8-27.5C1143.7,402.3,1081.7,364.4,1064.7,354.9z"/>
		</g>
		<g id="Layer_42">
			<path class="st22" d="M1067.1,357.6l-12.4-33.7l-11.2-9.8h-36.4c-1.1,4.4,3.9,6.1,7.6,6.5l20.5,1.5l-6.8,15.1l6.8,16l7.6,2.3
				l3.9-1.8c-1.8,9.3,2.7,15.3,13.3,17.8L1067.1,357.6z"/>
		</g>
		<g id="Layer_41">
			<path class="st38" d="M1201,388.9l-45.1,49.1c-8.1,8.5,39.8-53.2,39.8-53.2L1201,388.9z"/>
		</g>
		<g id="Layer_40">
			<path class="st44" d="M408.1,314.6c-5.8,7-4.9,19.1-2.3,35.1l12.2,56.5l40.5-12.7l-13.7-51.1
				C435.4,314.1,425.4,306.1,408.1,314.6z"/>
		</g>
		<g id="Layer_39">
			<path class="st12" d="M401.5,343.2l13.7,64.2l15-5.4l-17.5-62.4c-4-10.1-4.7-19.3-2.1-27.6C402.2,318.4,399.2,328.8,401.5,343.2z
				"/>
		</g>
		<g id="Layer_38">
			<path class="st11" d="M420.2,405.2l10.6,38.5c1.1,4.2,4.6,6.5,10.6,7h20.4l2.1-9l-14.5-46.1L420.2,405.2z"/>
		</g>
		<g id="Layer_37">
			<polygon class="st11" points="443.7,421.3 532.1,426.2 530.2,442 460.8,450.1 			"/>
		</g>
		<g id="Layer_36">
			<path class="st44" d="M538.3,344.3l5.7,31.5l14.4,13.5l15.7-17.6l-33.7-53.1c-11-0.5-17.3-0.5-6.5,18.3L538.3,344.3z"/>
		</g>
		<g id="Layer_35">
			<path class="st11" d="M523.1,426.2l37.5-10.8l7.5-8.3l-10.8,31.5l-11.8-0.6c-6.4,6.2-16.9,4.9-19.9,3.6L523.1,426.2z"/>
		</g>
		<g id="Layer_34">
			<path class="st45" d="M420,405.3l29.8-9.9l1.3,4.9l-22.9,9l8.8,33.5c2.5,4.1,10.2,5.4,23.2,4l67-4.5l-66,8.5H442
				c-5.7,0.3-9.1-1.2-10.3-4.7L420,405.3z"/>
		</g>
		<g id="Layer_33">
			<polygon class="st12" points="457.3,392.1 445.2,346 465.7,395.2 459.1,397.5 456.7,418.4 449.5,395.4 			"/>
		</g>
		<g id="Layer_32">
			<polygon class="st1" points="920.6,444.2 1124.9,444.2 1124.9,447 920.6,447 920.6,444.2 			"/>
		</g>
		<g id="Layer_31">
			<ellipse class="st35" cx="859.4" cy="372.5" rx="33.6" ry="50.8"/>
			<polygon class="st35" points="860.2,385.1 891.5,385.1 891.5,444.6 860.2,444.6 860.2,385.1 			"/>
			<path class="st36" d="M840,450.6c0-1.8,16.1-9.3,36-9.3s36,7.5,36,9.3s-16.1,3.3-36,3.3S840,452.4,840,450.6z"/>
			<path class="st3" d="M873.2,370.5c0-10.9,6.1-19.9,13.9-20.6c0.4,0,4.6,0,5,0c8.3,0,11.2,9.3,11.2,20.7s-1.4,20.7-9.7,20.7
				c-0.3,0-6,0-6.3,0C879.5,390.5,873.2,381.5,873.2,370.5z"/>
			<path class="st4" d="M865.8,311l1.6-3.9c-25.2-2.4-43.4,11.1-41.2,44.8l11.4,1.6C836.8,324.7,845,309.8,865.8,311z"/>
			<path class="st4" d="M859.1,310.8l0.2-3.8c20.3-1.9,44.1,7.8,40.5,46.2l-11.4,0.2C889.2,324.6,880,309.6,859.1,310.8z"/>
			<path class="st5" d="M888.4,347.2h11.8c-0.1,1.9-0.1,3.5-0.2,4.8h-11.5C888.4,351.3,888.4,349.7,888.4,347.2z"/>
			<ellipse class="st6" cx="894.4" cy="370.6" rx="15.1" ry="20.7"/>
			<ellipse class="st37" cx="897.7" cy="370.5" rx="8.9" ry="12.2"/>
			<path class="st8" d="M886.2,357.6c0-1.1,0.9-1.9,1.9-1.9c1.1,0,1.9,0.9,1.9,1.9c0,1.1-0.9,1.9-1.9,1.9c0,0,0,0,0,0
				C887,359.5,886.2,358.7,886.2,357.6C886.2,357.6,886.2,357.6,886.2,357.6z"/>
			<path class="st5" d="M830.2,351.7c-1.4-29.1,11.2-42.4,33.4-40.8c-20.1,0.5-26.3,16.9-25.9,40.5L830.2,351.7z"/>
			<ellipse class="st6" cx="827.7" cy="371.8" rx="15.1" ry="20.7"/>
			<path class="st3" d="M816.5,371.6c0-10.9,6.1-19.9,13.9-20.6c0.4,0,4.6,0,5,0c8.3,0,11.2,9.3,11.2,20.7s-1.4,20.7-9.7,20.7
				c-0.3,0-6,0-6.3,0C822.8,391.6,816.5,382.6,816.5,371.6z"/>
			<ellipse class="st1" cx="836.4" cy="371.7" rx="15.1" ry="20.7"/>
			<path class="st36" d="M826.3,372.4c0-28,15-50.8,33.6-50.8s1.6,22.7,1.6,50.8s17,50.8-1.6,50.8S826.3,400.4,826.3,372.4z"/>
			<path class="st46" d="M843.9,376.1c-2.2,2.6-3.9,6.5-2.8,9.1c1.3,2.2,2.8,2.9,6.9,2.2"/>
			<path class="st47" d="M860.2,423.3c16.5-2.8,26.6-13.6,30.2-32.4l1.1,0.1v51.8c4.7,0.9,9.2,2.1,13.7,3.8l-19.3,4.2v-33.6
				c-3.8,6.6-12.4,9.8-25.7,9.7V423.3z"/>
		</g>
		<g id="Layer_30">
			<path class="st38" d="M1028.3,405.1c3.6,3.5,6.2,7.9,7.7,12.7c1.1-6.1-0.6-12.5-4.8-17.1L1028.3,405.1z"/>
		</g>
		<g id="Layer_29">
			<path class="st45" d="M457.7,422c-3.6,0-8,1.3-10.5,5.4c0-3.4,3.5-6.7,9.4-8.7L457.7,422z"/>
		</g>
		<g id="Layer_28">
			<path class="st19" d="M365.5,507.5c9.1-1.1,18.2-1.6,27.4-1.6c25.5,0,48.7,4.1,66,10.8"/>
		</g>
		<g id="Layer_27">
			<line class="st18" x1="434.5" y1="561.9" x2="434.5" y2="508.9"/>
		</g>
		<g id="Layer_26">
			<path class="st19" d="M1220.2,507.9c-9.1-1.1-18.2-1.6-27.4-1.6c-25.5,0-48.7,4.1-66,10.8"/>
		</g>
		<g id="Layer_25">
			<line class="st18" x1="1155.2" y1="561" x2="1155.2" y2="508.1"/>
		</g>
		<g id="Layer_24">
			<path class="st48" d="M1344.8,338c-1.6-2.1-3.6-4-5.8-5.5c-2.9-2.1-6.1-3.9-9.4-5.4c-4.1-1.8-8.5-2.7-13-2.6
				c-1.6,0.1-3.2,0.3-4.7,0.5c1.4,2.5,1,6.6-1.2,12.2c-1.4-5.2-1-9.3,1.2-12.2c-6,0.9-13.3,3.1-21.8,6.6c2.4,4.1,4.9,10.4,7.3,18.8
				l1.7,6.4c0.8,3.4,2,6.7,3.7,9.9c1.4-10.9,5.7-14.9,12.9-11.9c-2.5,6.5-6.8,10.4-12.9,11.9c3,5.7,7.1,9.1,12.3,10.3
				c1.6,0.4,3.1,0.6,4.7,0.7c-2.4-9.9,0.8-15.6,9.8-17c-0.4,7.1-3.6,12.7-9.8,17c5.5,0.5,11-0.9,15.5-4.1c1.7-1.2,3.3-2.7,4.7-4.2
				v-0.1c3.3-3.8,5.8-8.8,7.5-15.1S1348.3,342.6,1344.8,338L1344.8,338z M1344.8,338c-0.7,9.3-4.3,15.8-11,19.3
				C1332.9,346.6,1336.5,340.1,1344.8,338z M1329.7,327.2c2,8.8-0.9,14.3-8.5,16.6C1319.7,334.9,1322.5,329.4,1329.7,327.2
				L1329.7,327.2z M1306.2,342.9c-2.5,5-5.4,7.5-8.8,7.5C1297.8,346.6,1300.8,344.1,1306.2,342.9L1306.2,342.9z M1414,309.8
				L1414,309.8c-5.7-1.5-11.5-2.3-17.3-2.5c-6.2-0.2-12.3,0.8-18.2,2.8c-0.8,0.3-2.1,0.8-4.1,1.5c-9.9,4.3-15.4,10-16.5,17.1
				c8.1-1.4,13.8,2.8,17,12.5c-7.8-1-13.4-5.2-17-12.5c-0.1,0.9-0.2,1.7-0.2,2.6c0,9.3,2.8,17.3,8.5,23.9c0.7,0.8,1.5,1.6,2.3,2.4v0
				c5.3,5.1,12.1,7.9,20.4,8.4c4.7,0.5,9.4-1,13-4.2c-7.7-0.5-15-4.9-22-13.3c13.4,0.5,20.8,4.9,22,13.3c2.9-2.5,5.2-6.2,6.9-11.1
				c0.3-0.9,0.8-2,1.2-3.5c-5.5,0.6-11.1-3.2-16.8-11.4c10.4,1.2,16,5,16.8,11.4c2-5.8,3.3-11.8,4-17.8c-3.2,1.1-7.4,0.2-12.6-2.9
				c6.5-1.5,10.7-0.5,12.6,2.9c0.2-2.1,0.3-4.1,0.2-6.2C1414,315.8,1414,311.3,1414,309.8z M1374.5,311.6
				c7.5,1.2,11.7,6.3,12.5,15.5C1378.3,323.7,1374.1,318.6,1374.5,311.6L1374.5,311.6z M1396.7,307.2c2.3,2.2,2,6.6-1,13.3
				C1393.8,315,1394.1,310.5,1396.7,307.2L1396.7,307.2z"/>
			<path class="st48" d="M1367,356.4c-8.7,15.3-12.9,37.6-12.9,66.7c0,1.9,0,3.9,0,5.9h1.8l1.8-0.1c-1.5-24.9-6.9-45.1-16.4-60.7
				c-0.4-0.8-1.4-1.1-2.3-0.7c-0.1,0.1-0.2,0.1-0.3,0.2c-0.8,0.8-1,2-0.4,3c9,14.7,14.2,34.2,15.7,58.5c0,1.1,0.9,2,1.9,2
				c1.1-0.1,1.9-1.1,1.8-2.2c0-2-0.1-3.9-0.1-5.8c0-28.7,4.2-50.1,12.2-64.3c0.6-1,0.4-2.3-0.5-3c-0.7-0.6-1.8-0.4-2.4,0.3
				C1367.1,356.2,1367,356.3,1367,356.4L1367,356.4z"/>
			<path class="st49" d="M1370,358.9c14.4-21.1,29.4-36.9,44.9-47.3c0.9-0.7,1.2-1.9,0.7-3c-0.4-0.9-1.4-1.3-2.2-0.9
				c-0.1,0-0.2,0.1-0.3,0.2c-16,10.8-31.3,26.9-46,48.4c-0.6,0.9-0.5,2.2,0.3,3c0.7,0.6,1.7,0.6,2.4,0
				C1369.8,359.1,1369.9,359,1370,358.9L1370,358.9z M1341.4,368c-13.7-19.4-30.7-32.3-50.8-38.5c-1-0.2-2,0.4-2.2,1.4
				c0,0.1,0,0.1,0,0.2c-0.3,1.1,0.3,2.2,1.3,2.6c19.4,6,35.6,18.3,48.9,37c0.5,0.8,1.5,1,2.3,0.5c0.1-0.1,0.2-0.1,0.3-0.2
				C1341.9,370.2,1342,369,1341.4,368L1341.4,368z"/>
			<path class="st1" d="M1378.6,438.5c0.3-4-0.8-8-3.3-11.2c-5.3-0.9-10.7-1.3-16.1-1.3c-10.2,0-16.3,0-17.1,0
				c-2.7-0.1-5.5-0.3-8.2-0.7c-1.3,1.6-2.2,3.4-2.8,5.4c13.8,3.1,27.5,7.3,41.5,9L1378.6,438.5z"/>
			<path class="st35" d="M1378.6,438.5l-5.8-0.7c-14-1.7-27.9-4-41.7-7.1c-2.2,7.1,1.1,14.9,9.8,23.7c7.3,1.3,16.6,1.3,28.1,0
				C1374.8,449,1378,443.7,1378.6,438.5z M1340.6,418.2c0.8,0.2,1.3,0.4,1.6,0.4c18.9,1.1,19.2-0.5,25.1-1.1
				c-4.1-7.2-2.3-13.7,5.4-19.6H1336C1345.1,404,1346.6,410.7,1340.6,418.2L1340.6,418.2z"/>
			<path class="st50" d="M1340.6,418.2c-1.1,1.4-2.3,2.7-3.6,3.8c-1.1,1-2.1,2.1-3.1,3.3c2.7,0.4,5.4,0.7,8.2,0.8
				c0.8,0.1,6.3,0.1,16.6,0.1c5.6,0,11.1,0.3,16.6,1.1c-0.9-1.3-2-2.5-3.1-3.6c-1.9-1.8-3.5-3.9-4.9-6.2c-8.3,1.2-16.7,1.5-25,1
				C1341.8,418.4,1341.2,418.3,1340.6,418.2z"/>
		</g>
		<g id="Layer_23">
			<path class="st15" d="M532.8,164.6c-46.6-22.7-69.9,9.1-63.6,34.9c3.6,27.4-16.8,30.1-8.8,48.3c2.7,7.2,8.3,18.1-2.3,24.4
				c2,6.8,16.4,7.3,20.9,2.2l18.6-41l-8.7-45.5l43.3-22.4L532.8,164.6z"/>
		</g>
		<g id="Layer_22">
			<path class="st11" d="M486.5,233.1c-11,30.6-15.4,42.6-20.3,53.3l-17.3,7c15.6,27.9,70,24.9,70,5.6l-14.2-8l6.6-28.1L486.5,233.1
				z"/>
			<path class="st51" d="M487.9,229.6l20.9-9.1l9,15.9L506,284.4c-9.5-3.6-26.3-16.9-26.1-33.1L487.9,229.6z"/>
			<path class="st52" d="M542.4,175.5c7.9,4.4,13.2,12.5,12.3,22.6c-1.3,14-2.2,24.1-6.1,35.9c-1.4,16.1-2.3,24.6-15.1,35.6
				c-9.7,8.4-12.6,11-19.6,9.9c-14.6-2.3-25.5-20.7-26.9-28.9c-1.9-11,6.8-28.6,2.3-56c-2.9-17.8,7.6-26.9,22-26.8
				C522.9,167.7,533.2,170.3,542.4,175.5z"/>
			<path class="st52" d="M482.5,231.9c-10.3-16.3,3.7-28.9,10.4-15.7h0.2L491,236h-0.5C487.7,236.8,483.6,233.8,482.5,231.9z"/>
			
				<ellipse transform="matrix(0.3827 -0.9239 0.9239 0.3827 110.9359 614.8873)" class="st53" cx="515.6" cy="224.4" rx="8.8" ry="8.8"/>
			<path class="st53" d="M534.1,232.1c0-4.9,4-8.8,8.8-8.8c4.9,0,8.8,4,8.8,8.8c0,4.9-4,8.8-8.8,8.8S534.1,236.9,534.1,232.1
				L534.1,232.1z"/>
			<path class="st54" d="M535.1,227.9c-2.6-4.1-6.2-5.2-10.9-3.3"/>
			<path class="st55" d="M530,227.4c-1.7,5.4-0.6,11.6,0.3,16c3.4,4.2-0.9,6-1.6,6.2c-0.9,0.1-3.3,0.1-6.9-2"/>
			<path class="st55" d="M507.2,247.6c0.4,4,4.7,7.5,8.2,8.9"/>
		</g>
		<g id="Layer_21">
			<path class="st15" d="M478.8,219.4c-13.9-32.1-9.1-55.7,18.8-60c4.3-0.6,8.6-0.8,12.9-0.6c6.9,0.4,12.9,2.6,18.6,4.9
				c16.5,6.9,27.2,20.2,25.2,35.4c-1.1,5.3-16.4,9.9-38.9-3.2c-8.2-4.4-14.3,1.2-12.5,12.9c-2,5.9-5,15.1-5.6,16
				c-4.2-2-4.6-4.1-4.2-6.9l-0.5-1.3C488.7,208.3,479.8,209.7,478.8,219.4z"/>
		</g>
		<g id="Layer_20">
			<path class="st15" d="M531.8,164.1c7.3,3.2,20.1,9.5,26.6,8.9c-1.1,2.6-4,4.7-6.4,5.6c4.4,0.9,8.9,0.6,13.2-0.7
				c-0.1,6.5-4.6,9.2-9,10.5c2.7,1.3,6.4,1.5,10.8-0.7c-3,13.6-15.2,22.2-38,14.2L531.8,164.1z"/>
		</g>
		<g id="Layer_19">
			<path class="st45" d="M555.3,393.1c4.9-5.7,15.8-18.2,17.8-20.1l-2.5,7.8c-1.4,1.7-11.5,13.5-12.7,14.9L555.3,393.1z"/>
		</g>
		<g id="Layer_18">
			<polygon class="st38" points="1037.1,318 1024.6,321.3 1035.2,322.1 			"/>
		</g>
		<g id="Layer_17">
			<path class="st4" d="M514.6,195.4c-18.9-11.1-36.9-4.6-38.3,12.2c0.4-0.1,18.5-4.5,16.1,9.6c-0.6,5.1,2.5,7.1,4.9,7.9l6.6-15.7
				C503.2,197.2,509,193.8,514.6,195.4z"/>
		</g>
		<g id="Layer_16">
			<line class="st54" x1="507.7" y1="219.5" x2="491.4" y2="212.4"/>
		</g>
		<g id="Layer_15">
			<path class="st16" d="M470,277.7l16-42.7c-5.7-4.3-8.3-11.6-6.6-18.5c-3.1,5.2-2.6,14.1,2.2,19.6l-14,36c-2.1,2.3-6.2,1.6-9.4,0
				C459,275.1,463.3,278.3,470,277.7z"/>
		</g>
		<g id="Layer_14">
			<path class="st16" d="M472,175.1c-3.9,8-4.3,16-2.6,25.4c1.1,7.4-0.2,15.1-4,23.1c-8.2,11.6-8.5,18.1-2.5,30.2
				c-3.3-16.8,0.7-22.2,5.1-28.5c4.5-7,6-16.4,4.2-25.6C470.1,190,470.1,184.5,472,175.1z"/>
		</g>
		<g id="Layer_13">
			<polygon class="st1" points="1246.4,353.9 1336.1,353.9 1336.1,454.5 1246.4,454.5 1246.4,353.9 			"/>
			<polygon class="st2" points="1224.6,353.9 1314.3,353.9 1314.3,454.6 1224.6,454.6 1224.6,353.9 			"/>
			<path class="st3" d="M1279.2,418.1c0-8.4,4.7-15.2,10.7-15.8c0.3,0,3.5,0,3.8,0c6.4,0,8.6,7.1,8.6,15.9s-1.1,15.9-7.5,15.9
				c-0.2,0-4.6,0-4.8,0C1284,433.5,1279.2,426.5,1279.2,418.1z"/>
			<path class="st4" d="M1273.5,372.4l1.2-3c-19.3-1.9-33.3,8.5-31.6,34.4l8.7,1.2C1251.2,383,1257.5,371.5,1273.5,372.4z"/>
			<path class="st4" d="M1268.4,372.3l0.1-2.9c15.6-1.4,33.9,6,31.1,35.5l-8.8,0.1C1291.5,382.9,1284.4,371.3,1268.4,372.3z"/>
			<path class="st5" d="M1290.9,400.2h9c0,1.4-0.1,2.7-0.2,3.7h-8.8C1290.9,403.3,1290.9,402.1,1290.9,400.2z"/>
			<ellipse class="st6" cx="1295.5" cy="418.1" rx="11.6" ry="15.9"/>
			<ellipse class="st7" cx="1298" cy="418.1" rx="6.8" ry="9.4"/>
			<path class="st8" d="M1289.2,408.2c0-0.8,0.7-1.5,1.5-1.5s1.5,0.7,1.5,1.5c0,0.8-0.7,1.5-1.5,1.5c0,0,0,0,0,0
				C1289.8,409.6,1289.2,409,1289.2,408.2C1289.2,408.2,1289.2,408.2,1289.2,408.2z"/>
			<path class="st5" d="M1246.3,403.6c-1.1-22.3,8.6-32.5,25.6-31.3c-15.4,0.3-20.2,13-19.9,31L1246.3,403.6z"/>
			<ellipse class="st6" cx="1244.3" cy="419.1" rx="11.6" ry="15.9"/>
			<path class="st3" d="M1235.8,419c0-8.4,4.7-15.2,10.7-15.8c0.3,0,3.5,0,3.8,0c6.4,0,8.6,7.1,8.6,15.9s-1.1,15.9-7.4,15.9
				c-0.2,0-4.6,0-4.8,0C1240.5,434.3,1235.8,427.4,1235.8,419z"/>
			<ellipse class="st1" cx="1251" cy="419" rx="11.6" ry="15.9"/>
			<path class="st1" d="M1264.4,359.5h7.5v5.2h-7.5V359.5z M1231.2,359.5h24.2v5.2h-24.2V359.5z"/>
			<polygon class="st1" points="1272,445.9 1306.1,445.9 1306.1,449.4 1272,449.4 1272,445.9 			"/>
			<path class="st9" d="M1323,412.2v-7.5h5.2v7.5H1323z M1323,445.4v-24.2h5.2v24.2H1323z"/>
		</g>
		<g id="Layer_12">
			<ellipse class="st31" cx="769" cy="452.8" rx="20.6" ry="2.5"/>
		</g>
		<g id="Layer_11">
			<polygon class="st56" points="772.5,381.3 774.9,372.9 777.3,381.3 774.9,389.7 772.5,381.3 			"/>
			<polygon class="st57" points="772.7,381 777.5,381 777.5,438.3 772.7,438.3 772.7,381 			"/>
			<polygon class="st58" points="774,376.4 775.1,372.6 776.2,376.4 			"/>
			<polygon class="st59" points="772.7,381 774.3,381 774.3,438.4 772.7,438.4 772.7,381 			"/>
			<polygon class="st56" points="758.3,383.2 759.1,374.5 763,382.3 762.3,391 758.3,383.2 			"/>
			<polygon class="st57" points="758.2,382.9 763,382 774,438.2 769.2,439.2 758.2,382.9 			"/>
			<polygon class="st58" points="759,377.9 759.3,374 761.1,377.5 			"/>
			<polygon class="st59" points="758.2,382.9 759.8,382.6 770.8,439 769.2,439.3 758.2,382.9 			"/>
			<polygon class="st56" points="778.9,381.6 781.3,373.2 783.7,381.6 781.3,390 778.9,381.6 			"/>
			<polygon class="st57" points="779.1,381.3 783.9,381.3 783.9,438.6 779.1,438.6 779.1,381.3 			"/>
			<polygon class="st58" points="780.4,376.7 781.5,372.9 782.5,376.7 			"/>
			<polygon class="st59" points="779.1,381.3 780.7,381.3 780.7,438.7 779.1,438.7 779.1,381.3 			"/>
			<path class="st60" d="M761,398.8h23.8v53.3c-7.9,1.5-16,1.5-23.8,0L761,398.8z"/>
			<path class="st61" d="M761,428.2c11.8,2.1,16-25,23.8-26.3v23.1c-3.8,15.7-11.7,24.5-23.8,26.3V428.2z"/>
		</g>
		<g id="Layer_10">
			<path class="st38" d="M1145.6,405.7c3.5,3.3,5.2,5.2,6.6,8.9c0.5-4.2-1.4-6.8-5.3-11L1145.6,405.7z"/>
		</g>
		<g id="Layer_9">
			<polygon class="st62" points="578,358 737.5,358 741.8,361.5 707.3,448.6 551.4,453.2 547.8,448.6 			"/>
		</g>
		<g id="Layer_8">
			<polygon class="st35" points="582.3,361.3 742.8,361.3 712.1,453.5 551.6,453.5 582.3,361.3 			"/>
		</g>
		<g id="Layer_7">
			<polygon class="st63" points="637.3,403.5 654.9,403.5 651.5,413.6 634,413.6 637.3,403.5 			"/>
		</g>
	</g>
</g>
</svg>
